<svg width="25" height="25" viewBox="0 0 25 25" fill="none" xmlns="http://www.w3.org/2000/svg">
<g clip-path="url(#clip0_149_2140)">
<path d="M19.584 6.66667H17.5006V5.83333C17.5006 3.995 16.0056 2.5 14.1673 2.5C12.329 2.5 10.834 3.995 10.834 5.83333V6.66667H8.75065C7.60232 6.66667 6.66732 7.60083 6.66732 8.75V10.8333H15.4173C17.0257 10.8333 18.334 12.1417 18.334 13.75V21.25C18.334 21.3925 18.3115 21.5292 18.2915 21.6667H19.584C20.7323 21.6667 21.6673 20.7325 21.6673 19.5833V8.75C21.6673 7.60083 20.7323 6.66667 19.584 6.66667ZM12.5007 6.66667V5.83333C12.5007 4.91417 13.2481 4.16667 14.1673 4.16667C15.0865 4.16667 15.834 4.91417 15.834 5.83333V6.66667H12.5007ZM15.4173 12.5H4.58398C3.89398 12.5 3.33398 13.06 3.33398 13.75V21.25C3.33398 21.94 3.89398 22.5 4.58398 22.5H15.4173C16.1073 22.5 16.6673 21.94 16.6673 21.25V13.75C16.6673 13.06 16.1073 12.5 15.4173 12.5ZM10.0007 18.3333C8.16232 18.3333 6.66732 16.8383 6.66732 15H8.33398C8.33398 15.9192 9.08148 16.6667 10.0007 16.6667C10.9198 16.6667 11.6673 15.9192 11.6673 15H13.334C13.334 16.8383 11.839 18.3333 10.0007 18.3333Z" fill="#ADABBA"/>
</g>
<defs>
<clipPath id="clip0_149_2140">
<rect width="25" height="25" fill="white"/>
</clipPath>
</defs>
</svg>
