<svg width="25" height="25" viewBox="0 0 25 25" fill="none" xmlns="http://www.w3.org/2000/svg">
<g clip-path="url(#clip0_149_2135)">
<path d="M9.58398 3.33301H5.41732C4.26898 3.33301 3.33398 4.26717 3.33398 5.41634V11.2497C3.33398 12.3988 4.26898 13.333 5.41732 13.333H9.58398C10.7323 13.333 11.6673 12.3988 11.6673 11.2497V5.41634C11.6673 4.26717 10.7323 3.33301 9.58398 3.33301ZM19.584 3.33301H15.4173C14.269 3.33301 13.334 4.26717 13.334 5.41634V7.91634C13.334 9.06551 14.269 9.99967 15.4173 9.99967H19.584C20.7323 9.99967 21.6673 9.06551 21.6673 7.91634V5.41634C21.6673 4.26717 20.7323 3.33301 19.584 3.33301ZM9.58398 14.9997H5.41732C4.26898 14.9997 3.33398 15.9338 3.33398 17.083V19.583C3.33398 20.7322 4.26898 21.6663 5.41732 21.6663H9.58398C10.7323 21.6663 11.6673 20.7322 11.6673 19.583V17.083C11.6673 15.9338 10.7323 14.9997 9.58398 14.9997ZM19.584 11.6663H15.4173C14.269 11.6663 13.334 12.6005 13.334 13.7497V19.583C13.334 20.7322 14.269 21.6663 15.4173 21.6663H19.584C20.7323 21.6663 21.6673 20.7322 21.6673 19.583V13.7497C21.6673 12.6005 20.7323 11.6663 19.584 11.6663Z" fill="#ADABBA"/>
</g>
<defs>
<clipPath id="clip0_149_2135">
<rect width="25" height="25" fill="white"/>
</clipPath>
</defs>
</svg>
