<svg width="25" height="25" viewBox="0 0 25 25" fill="none" xmlns="http://www.w3.org/2000/svg">
<g clip-path="url(#clip0_149_1467)">
<path d="M8.09925 5.95944C8.09925 3.59246 10.0732 1.66699 12.4998 1.66699C14.9264 1.66699 16.9004 3.59246 16.9004 5.95944C16.9004 8.32643 14.9264 10.2519 12.4998 10.2519C10.0732 10.2519 8.09925 8.32643 8.09925 5.95944ZM19.2281 15.0439C15.0781 12.7857 9.92234 12.7849 5.77238 15.0447C5.14457 15.3865 4.85119 16.1093 5.07415 16.7634L6.98529 22.3558C7.18562 22.9412 7.74473 23.3337 8.37674 23.3337H16.6229C17.2549 23.3337 17.814 22.9412 18.0144 22.3558L19.9255 16.7634C20.1493 16.1093 19.8551 15.3865 19.2281 15.0439Z" fill="#ADABBA"/>
</g>
<defs>
<clipPath id="clip0_149_1467">
<rect width="25" height="25" fill="white"/>
</clipPath>
</defs>
</svg>
