<svg width="25" height="25" viewBox="0 0 25 25" fill="none" xmlns="http://www.w3.org/2000/svg">
<path d="M20.8327 20.5554V11.1109C20.8327 10.9385 20.795 10.7683 20.7227 10.614C20.6504 10.4598 20.5454 10.3256 20.416 10.2221L13.1244 4.38873C12.944 4.24448 12.7247 4.1665 12.4993 4.1665C12.274 4.1665 12.0547 4.24448 11.8743 4.38873L4.58268 10.2221C4.45331 10.3256 4.34831 10.4598 4.27599 10.614C4.20367 10.7683 4.16602 10.9385 4.16602 11.1109V20.5554C4.16602 20.8501 4.27576 21.1327 4.47111 21.3411C4.66646 21.5494 4.93142 21.6665 5.20768 21.6665H9.37435C9.65062 21.6665 9.91557 21.5494 10.1109 21.3411C10.3063 21.1327 10.416 20.8501 10.416 20.5554V17.2221C10.416 16.9274 10.5258 16.6448 10.7211 16.4364C10.9165 16.228 11.1814 16.1109 11.4577 16.1109H13.541C13.8173 16.1109 14.0822 16.228 14.2776 16.4364C14.4729 16.6448 14.5827 16.9274 14.5827 17.2221V20.5554C14.5827 20.8501 14.6924 21.1327 14.8878 21.3411C15.0831 21.5494 15.3481 21.6665 15.6243 21.6665H19.791C20.0673 21.6665 20.3322 21.5494 20.5276 21.3411C20.7229 21.1327 20.8327 20.8501 20.8327 20.5554Z" fill="#ADABBA" stroke="#ADABBA" stroke-width="2" stroke-linecap="round" stroke-linejoin="round"/>
</svg>
